<?xml version="1.0" encoding="utf-8"?>
<!-- Generator: Adobe Illustrator 25.2.3, SVG Export Plug-In . SVG Version: 6.00 Build 0)  -->
<svg version="1.1" id="Capa_1" xmlns="http://www.w3.org/2000/svg" xmlns:xlink="http://www.w3.org/1999/xlink" x="0px" y="0px"
	 viewBox="0 0 547.56 335.88" enable-background="new 0 0 547.56 335.88" xml:space="preserve">
<g>
	<g>
		<polygon points="128.63,253.1 114.63,253.1 114.63,303.5 161.53,303.5 161.53,294.4 128.63,294.4 		"/>
		<path d="M74.27,253.1h-7.7l-23.8,50.4h14.7l4.67-10.27h12.13h12.37l4.2,10.27h14.93l-23.33-50.4H74.27z M74.27,284.6h-8.63
			l8.63-20.07h0.23l8.17,20.07H74.27z"/>
		<path d="M482.11,274.8l-16.1-3.03c-2.8-0.47-7-1.17-7-5.13c0-4.67,6.3-6.06,11.43-6.06c12.13,0,13.3,5.36,13.77,7.46h13.3
			c-0.23-6.07-5.6-16.1-25.9-16.1c-21.7,0-25.67,9.8-25.67,15.4c0,11.2,10.5,12.83,21.23,14.93l7,1.17c7,1.17,12.13,2.33,12.13,6.3
			c0,5.37-7.47,6.53-14,6.53c-12.13,0-14-5.37-14-8.17h-13.3c0,6.3,4.2,16.8,28.47,16.8c5.6,0,26.13-1.4,26.13-16.56
			C499.61,279.47,491.21,276.67,482.11,274.8z"/>
		<path d="M407.91,253.1h-7.7l-23.8,50.4h14.7l4.67-10.27h12.13h12.37l4.2,10.27h14.93l-23.33-50.4H407.91z M407.91,284.6h-8.63
			l8.63-20.07h0.23l8.17,20.07H407.91z"/>
		<path d="M197.46,253.1h-7.7l-23.8,50.4h14.7l4.67-10.27h12.13h12.37l4.2,10.27h15.16l-23.33-50.4H197.46z M197.46,284.6h-8.4
			l8.4-20.07h0.23l8.17,20.07H197.46z"/>
		<polygon points="336.28,293 324.15,253.1 303.85,253.1 303.85,303.5 316.92,303.5 316.92,261.5 317.15,261.5 329.28,303.5 
			342.82,303.5 355.18,261.5 355.42,261.5 355.42,303.5 368.25,303.5 368.25,253.1 348.18,253.1 		"/>
		<path d="M290.32,292.3c0-9.57-2.8-10.97-8.4-12.83c6.77-1.63,10.27-6.53,10.27-12.13c0-4.2-3.03-14.23-20.76-14.23h-6.53h-26.83
			v50.4h13.53v-19.6h13.3h0.93c10.27,0,10.73,2.57,10.73,9.57c0,5.13,0.47,7.7,1.4,10.03h15.4v-1.17
			C290.32,301.4,290.32,299.53,290.32,292.3z M267.69,275.27h-2.8h-13.3v-13.3h13.3h3.73c8.17,0,9.8,3.73,9.8,6.53
			C278.42,273.4,274.92,275.27,267.69,275.27z"/>
	</g>
	<polygon fill-rule="evenodd" clip-rule="evenodd" fill="#034EA2" points="315.05,174.94 224.99,174.94 234.56,190.11 
		324.85,190.11 324.85,171.21 315.05,153.48 	"/>
	<polygon fill-rule="evenodd" clip-rule="evenodd" fill="#034EA2" points="156.16,148.11 129.8,190.34 98.53,190.34 91.53,174.94 
		121.86,174.94 147.76,134.34 	"/>
	<polygon fill-rule="evenodd" clip-rule="evenodd" fill="#034EA2" points="148.23,88.15 125.13,49.65 145.2,57.58 156.16,76.95 	"/>
	<path fill-rule="evenodd" clip-rule="evenodd" fill="#034EA2" d="M48.13,160.94C25.03,76.71,85.7,44.98,127.46,45.22h271.58
		c46.43,2.1,62.3,19.6,71.86,30.56c-19.6-31.5-40.13-45.26-73.5-45.26H127.46C44.64,27.72,7.3,105.65,48.13,160.94z"/>
	<path fill-rule="evenodd" clip-rule="evenodd" fill="#034EA2" d="M330.45,110.54c2.57-2.33,4.2-2.57,7-3.27
		c-4.43-1.63-7.7-3.5-10.97-7.93L330.45,110.54z"/>
	<path fill-rule="evenodd" clip-rule="evenodd" fill="#034EA2" d="M354.25,97.71c1.17-14.23,15.17-18.43,30.56-10.5
		C385.75,54.78,325.55,67.38,354.25,97.71z"/>
	<path fill-rule="evenodd" clip-rule="evenodd" fill="#034EA2" d="M405.58,65.75c18.67,15.16,15.4,35.93,3.04,52.03
		c-4.2-5.83-8.17-9.56-14.23-12.13C409.78,97.71,414.21,83.71,405.58,65.75z"/>
	<path fill-rule="evenodd" clip-rule="evenodd" fill="#034EA2" d="M349.58,152.78c-34.3-28.23,34.53-52.96,39.9-12.6
		C378.98,131.08,348.65,133.18,349.58,152.78z"/>
	<path fill-rule="evenodd" clip-rule="evenodd" fill="#034EA2" d="M319.25,155.34c19.83,72.33,133.92,30.8,94.26-27.3
		C423.08,187.77,338.38,189.17,319.25,155.34z"/>
	<path fill-rule="evenodd" clip-rule="evenodd" fill="#034EA2" d="M31.34,177.27c25.2,30.8,56.93,40.36,89.59,40.36h278.58
		c59.03,0,123.19-56,95.66-148.86c49.7,99.39-24.03,166.12-86.56,166.12H129.1C96.9,236.07,56.3,223.94,31.34,177.27z"/>
	<path fill-rule="evenodd" clip-rule="evenodd" fill="#034EA2" d="M172.26,174.94l7.93,15.17h43.16l-28.7-49.93h41.53l15.17-21.7
		l-4.67-8.17h14.93c0.7-22.87,16.8-27.53,28-18.9c3.03-26.13-35.93-30.8-37.33,3.03h-25.66l6.53,10.5h8.4l-13.3,20.53h-45.26
		l1.87-3.73l-5.37-8.63l31.03-49l-9.57-14.47l-38.26,61.6l36.63,63.7H172.26z"/>
	<path fill-rule="evenodd" clip-rule="evenodd" fill="#034EA2" d="M259.99,152.78h25.43c21.47-15.63,44.8-25.43,40.6-58.1
		c-1.17-8.87-6.07-18.2-16.57-28.23C335.12,114.75,273.05,136.68,259.99,152.78z"/>
</g>
</svg>
